<?xml version="1.0" encoding="utf-8"?>
<svg xmlns="http://www.w3.org/2000/svg" xmlns:xlink="http://www.w3.org/1999/xlink" version="1.1" id="Ebene_1" x="0px" y="0px" viewBox="0 0 601 142" style="enable-background:new 0 0 601 142;" xml:space="preserve" width="650" height="154">
<style type="text/css">
	.st0{fill:#897DB6;}
	.st1{fill:#3B2685;}
	.st2{enable-background:new    ;}
	.st3{fill:#707474;}
	.st4{font-family:'DaxlineOT-Regular';}
	.st5{font-size:23.976px;}
	.st6{letter-spacing:2.2;}
	.st7{fill:#482683;}
	.st8{clip-path:url(#SVGID_2_);}
	.st9{fill:#FFFFFF;}
	.st10{fill:#A593C6;}
	.st11{fill:#E1DBEE;}
	.st12{fill:#C3B7DB;}
	.st13{fill:url(#SVGID_3_);}
</style>
<title>190906_Logo_Schaefer-Kretschmer_AM</title>
<path class="st0" d="M340.4,40.7h1.2V22.1h-1.9v11.5l0.3,2.7h-0.1l-1.1-2.7l-6.9-11.8h-1.2v18.5h1.9V28.8l-0.3-2.8h0.1l1.1,2.9  L340.4,40.7z M316.4,40.4h8.5v-1.8h-6.5v-6.7h5.8v-1.8h-5.8V24h6.3v-1.8h-8.3L316.4,40.4z M305.6,32.5L309,33v5.3  c-0.7,0.5-1.5,0.7-2.3,0.7c-1.4,0-2.7-0.7-3.5-1.9c-0.9-1.2-1.3-3.2-1.3-5.8c0-1.2,0.1-2.4,0.4-3.6c0.2-0.8,0.6-1.6,1.1-2.4  c0.4-0.5,0.9-1,1.6-1.3c0.6-0.3,1.2-0.4,1.8-0.4c0.6,0,1.1,0,1.7,0.1c0.4,0.1,0.9,0.2,1.3,0.4l0.5-1.8c-0.5-0.2-1-0.4-1.5-0.5  c-0.7-0.1-1.4-0.2-2.1-0.2c-0.9,0-1.7,0.2-2.5,0.5c-0.8,0.4-1.6,0.9-2.2,1.7c-0.7,0.9-1.2,1.9-1.5,2.9c-0.4,1.4-0.6,2.9-0.6,4.3  c0,1.4,0.1,2.9,0.5,4.2c0.2,1.1,0.7,2,1.3,2.9c0.5,0.7,1.2,1.3,2.1,1.7c0.9,0.4,1.8,0.6,2.7,0.5c0.8,0,1.6-0.1,2.4-0.3  c0.7-0.2,1.4-0.5,1.9-1v-8h-5.2L305.6,32.5z M293,40.7h1.2V22.1h-1.9v11.5l0.3,2.7h-0.1l-1.1-2.7l-7-11.8h-1.2v18.5h1.9V28.8  l-0.3-2.8h0.1l1.1,2.9L293,40.7z M275,33.8c0.1,1.3-0.1,2.6-0.7,3.8c-0.5,0.8-1.5,1.3-2.5,1.2c-0.5,0-1.1-0.1-1.6-0.3  c-0.4-0.2-0.8-0.5-1.1-0.9c-0.3-0.5-0.5-1-0.6-1.6c-0.1-0.8-0.2-1.6-0.2-2.4V22.1h-2v12.6c-0.1,1.6,0.3,3.1,1.3,4.4  c1.1,1.1,2.6,1.6,4.1,1.4c1.4,0.1,2.8-0.5,3.8-1.5c0.9-1,1.3-2.6,1.3-4.8V22.1H275V33.8z M261.5,22.1h-11.2V24h4.6v16.4h2V24h4.6  V22.1z M246.2,22.1H235V24h4.6v16.4h2V24h4.6L246.2,22.1z M226.4,28l0.5-2.8h0.1l0.5,2.8l1.6,5.7h-4.3L226.4,28z M231.1,40.4h2.1  l-5.6-18.5h-1.1l-5.6,18.5h2l1.5-5.1h5.3L231.1,40.4z M218.9,22.1h-11.2V24h4.6v16.4h2V24h4.6L218.9,22.1z M193.9,39.8  c0.5,0.3,1.1,0.5,1.6,0.7c0.9,0.2,1.8,0.3,2.6,0.3c1.4,0.1,2.8-0.4,3.9-1.3c1-0.9,1.5-2.2,1.4-3.6c0-0.8-0.2-1.6-0.5-2.3  c-0.4-0.7-0.8-1.3-1.3-1.8c-0.5-0.5-1.1-1-1.7-1.4c-0.6-0.4-1.2-0.9-1.7-1.3c-0.5-0.4-1-0.8-1.3-1.3c-0.4-0.5-0.5-1-0.5-1.6  c0-0.7,0.2-1.3,0.7-1.7c0.6-0.5,1.4-0.7,2.1-0.7c0.7,0,1.4,0.1,2.1,0.2c0.5,0.1,0.9,0.3,1.4,0.5l0.6-1.7c-0.5-0.3-1.1-0.5-1.7-0.6  c-0.8-0.2-1.6-0.2-2.4-0.2c-1.3-0.1-2.5,0.3-3.5,1c-0.9,0.8-1.4,2-1.4,3.2c0,0.8,0.2,1.6,0.5,2.3c0.4,0.6,0.8,1.2,1.3,1.7  c0.5,0.5,1.1,0.9,1.7,1.4c0.6,0.4,1.2,0.8,1.7,1.3c0.5,0.4,0.9,0.9,1.3,1.4c0.4,0.5,0.6,1.1,0.5,1.8c0.1,0.9-0.3,1.7-0.9,2.2  c-0.7,0.5-1.6,0.8-2.4,0.7c-0.7,0-1.4-0.1-2.1-0.3c-0.5-0.1-1-0.4-1.4-0.6L193.9,39.8z M180.5,40.4h8.5v-1.8h-6.4v-6.7h5.8v-1.8  h-5.8V24h6.3v-1.8h-8.3L180.5,40.4z M167.1,30.2v-6.4c0.3,0,0.6-0.1,0.9-0.1c0.4,0,0.8,0,1.3,0c0.4,0,0.8,0,1.2,0.1  c0.4,0.1,0.7,0.3,1,0.5c0.3,0.3,0.5,0.6,0.6,0.9c0.2,0.5,0.3,0.9,0.2,1.4c0,0.8-0.2,1.5-0.7,2.1c-0.4,0.6-1,1-1.7,1.3  c-0.3,0-0.5,0.1-0.8,0.1h-0.9L167.1,30.2z M168.7,38.8h-0.6h-0.6c-0.1,0-0.3,0-0.4-0.1v-6.7h1.8c0.5,0,0.9,0,1.4,0.1  c0.4,0.1,0.8,0.2,1.2,0.5c0.4,0.3,0.7,0.6,0.9,1c0.2,0.5,0.4,1.1,0.3,1.7c0,0.5-0.1,1-0.3,1.5c-0.2,0.4-0.4,0.8-0.7,1.1  c-0.3,0.3-0.7,0.5-1.1,0.7c-0.4,0.2-0.9,0.2-1.3,0.2L168.7,38.8 M174,24.1c-0.3-0.5-0.7-1-1.2-1.3c-0.5-0.3-1.1-0.5-1.6-0.6  c-0.6-0.1-1.2-0.2-1.8-0.2c-0.8,0-1.6,0-2.3,0.1c-0.6,0.1-1.3,0.1-1.9,0.3v17.9c0.3,0.1,0.7,0.2,1,0.2c0.4,0,0.7,0.1,1.1,0.1  s0.7,0,1.1,0h0.9c0.7,0,1.5-0.1,2.2-0.3c0.7-0.2,1.3-0.5,1.8-1c0.5-0.5,1-1,1.2-1.7c0.3-0.8,0.5-1.6,0.4-2.4c0-0.6-0.1-1.2-0.3-1.8  c-0.1-0.5-0.4-0.9-0.7-1.3c-0.3-0.3-0.6-0.6-1-0.8c-0.4-0.2-0.8-0.3-1.2-0.4v-0.1c0.5-0.1,0.9-0.4,1.3-0.7c0.3-0.3,0.6-0.7,0.9-1.1  c0.2-0.4,0.4-0.8,0.5-1.3c0.1-0.4,0.2-0.9,0.2-1.4C174.5,25.4,174.4,24.7,174,24.1"/>
<path class="st1" d="M567.9,61.1c0.4-0.1,0.9-0.2,1.4-0.2c0.6,0,1.2-0.1,1.7-0.1c1.3-0.1,2.6,0.5,3.4,1.5c0.8,1.1,1.2,2.4,1.2,3.7  c0.1,1.6-0.4,3.1-1.4,4.3c-1,1-2.4,1.5-3.8,1.4h-2.5L567.9,61.1z M564.8,86.8h3.1v-13l3.1,0.6l6.3,12.4h3.6l-5.8-11.3l-1.6-1.5  c1.6-0.4,2.9-1.4,3.8-2.7c1-1.6,1.5-3.5,1.5-5.4c0-1.3-0.2-2.5-0.7-3.7c-0.8-1.8-2.3-3.2-4.3-3.7c-1-0.3-2-0.4-3.1-0.4  c-0.9,0-1.9,0-3,0.2c-1,0.1-2,0.2-3,0.5L564.8,86.8z M542.5,86.8h13.2V84h-10.1V73.6h9.1v-2.8h-9.1v-9.6h9.9v-2.8h-13L542.5,86.8z   M529.6,86.8h3.1V58.3H530l-6.7,14l-1,3.4h-0.1l-1-3.3l-7.1-14h-2.6v28.4h3V68.1l-0.6-4.3h0.1l1.3,4l6.2,12.4h1l5.9-12.4l1.3-4h0.3  l-0.4,4.3L529.6,86.8z M498.6,86.8h3.1V58.3h-3.1v12.5h-10.8V58.3h-3.1v28.5h3.1V73.7h10.8L498.6,86.8z M475.7,83.2  c-0.6,0.4-1.2,0.7-1.9,0.9c-0.8,0.3-1.7,0.4-2.6,0.4c-2.2,0-4.4-1.1-5.6-3c-1.4-2-2.1-5-2.1-8.9c0-1.9,0.2-3.7,0.6-5.6  c0.3-1.3,0.8-2.6,1.6-3.7c1.1-1.7,3-2.7,5.1-2.7c0.9,0,1.7,0.1,2.6,0.2c0.7,0.1,1.4,0.4,2,0.7l0.8-2.8c-0.7-0.3-1.5-0.5-2.3-0.7  c-1.1-0.2-2.2-0.3-3.3-0.3c-1.3,0-2.6,0.3-3.8,0.8c-1.3,0.6-2.4,1.4-3.3,2.5c-1.1,1.3-1.9,2.9-2.4,4.6c-0.6,2.2-0.9,4.6-0.9,6.9  c0,2.3,0.2,4.5,0.8,6.8c0.4,1.7,1.1,3.2,2.1,4.6c0.8,1.1,2,2,3.2,2.6c1.3,0.6,2.7,0.8,4.1,0.8c1.1,0,2.3-0.1,3.4-0.4  c1-0.2,1.9-0.6,2.6-1.2L475.7,83.2z M437.5,85.8c0.8,0.4,1.7,0.8,2.6,1c1.3,0.3,2.7,0.5,4.1,0.4c2.2,0.2,4.4-0.6,6.1-2  c1.5-1.5,2.3-3.5,2.2-5.6c0-1.3-0.3-2.5-0.8-3.7c-0.6-1-1.3-2-2.1-2.8c-0.8-0.8-1.7-1.6-2.7-2.2c-1-0.7-1.9-1.3-2.7-2  c-0.8-0.6-1.5-1.3-2.1-2c-0.6-0.7-0.8-1.6-0.8-2.5c0-1,0.4-2,1.1-2.7c0.9-0.8,2.1-1.2,3.4-1.1c1.1,0,2.2,0.1,3.2,0.4  c0.8,0.2,1.5,0.5,2.2,0.8l1-2.7c-0.8-0.4-1.7-0.8-2.6-0.9c-1.2-0.3-2.5-0.4-3.7-0.4c-2-0.1-3.9,0.5-5.5,1.7  c-1.5,1.2-2.3,3.1-2.1,5.1c0,1.3,0.3,2.5,0.8,3.6c0.5,1,1.2,1.9,2.1,2.6c0.8,0.8,1.8,1.5,2.7,2.2c0.9,0.6,1.8,1.3,2.7,2  c0.8,0.6,1.5,1.4,2.1,2.2c0.6,0.8,0.9,1.8,0.8,2.8c0.1,1.3-0.4,2.7-1.5,3.5c-1.1,0.8-2.5,1.2-3.8,1.1c-1.1,0-2.2-0.2-3.3-0.6  c-0.8-0.2-1.5-0.6-2.2-1L437.5,85.8z M431.1,58.3h-17.6v2.8h7.2v25.7h3.1V61.1h7.2L431.1,58.3z M393.3,86.8h13.2V84h-10.1V73.6h9.1  v-2.8h-9.1v-9.6h9.9v-2.8h-13L393.3,86.8z M372,61.1c0.4-0.1,0.9-0.2,1.4-0.2c0.6,0,1.2-0.1,1.7-0.1c1.3-0.1,2.6,0.5,3.4,1.5  c0.8,1.1,1.2,2.4,1.1,3.7c0.1,1.6-0.4,3.1-1.4,4.3c-1,1-2.4,1.5-3.8,1.4H372V61.1z M368.9,86.8h3.1v-13l3.1,0.6l6.3,12.4h3.6  l-5.8-11.3l-1.6-1.5c1.6-0.4,2.9-1.4,3.8-2.7c1.1-1.6,1.6-3.5,1.5-5.5c0-1.3-0.2-2.5-0.6-3.7c-0.8-1.8-2.3-3.2-4.3-3.7  c-1-0.3-2-0.4-3.1-0.4c-0.9,0-1.9,0-3,0.2c-1,0.1-2,0.2-3,0.5L368.9,86.8z M356.8,86.8h4l-8.5-13.3l-1.7-1.6l1.5-1.3l7.7-12.3h-3.6  L348.5,71l-1.5,0.6V58.3h-3.1v28.5h3.1V73.6h1.5L356.8,86.8z M328.2,73.3h8.2v-2.8h-8.2V73.3z M310.6,61.1c0.4-0.1,0.9-0.2,1.4-0.2  c0.6,0,1.2-0.1,1.7-0.1c1.3-0.1,2.6,0.5,3.4,1.5c0.8,1.1,1.2,2.4,1.1,3.7c0.1,1.6-0.4,3.1-1.4,4.3c-1,1-2.4,1.5-3.8,1.4h-2.5  L310.6,61.1z M307.5,86.8h3.1v-13l3.1,0.6l6.3,12.4h3.6l-5.8-11.3l-1.6-1.5c1.6-0.4,2.9-1.4,3.8-2.7c1-1.6,1.5-3.5,1.4-5.4  c0-1.3-0.2-2.5-0.6-3.7c-0.8-1.8-2.3-3.2-4.3-3.7c-1-0.3-2.1-0.4-3.1-0.4c-0.9,0-1.9,0-3,0.2c-1,0.1-2,0.2-3,0.5L307.5,86.8z   M285.2,86.8h13.2V84h-10.1V73.6h9.1v-2.8h-9.1v-9.6h9.9v-2.8h-13L285.2,86.8z M263.5,86.8h3.1V74h9.2v-2.8h-9.2v-10h9.9v-2.9h-13  L263.5,86.8z M248.4,55.9c0.4,0.4,0.9,0.5,1.4,0.5c0.5,0,1.1-0.2,1.4-0.5c0.4-0.4,0.5-0.9,0.5-1.4c0-0.5-0.2-1-0.5-1.4  c-0.4-0.4-0.9-0.6-1.4-0.5c-0.5,0-1,0.2-1.4,0.5c-0.4,0.4-0.5,0.9-0.5,1.4C247.9,55,248.1,55.5,248.4,55.9 M241.8,55.9  c0.4,0.4,0.9,0.5,1.4,0.5c0.5,0,1-0.2,1.4-0.5c0.4-0.4,0.5-0.9,0.5-1.4c0-0.5-0.2-1-0.5-1.4c-0.4-0.4-0.9-0.6-1.4-0.5  c-0.5,0-1.1,0.2-1.4,0.5c-0.4,0.4-0.5,0.9-0.5,1.4C241.3,55,241.5,55.5,241.8,55.9 M245.6,67.4l0.8-4.4h0.1l0.8,4.3l2.5,8.8h-6.7  L245.6,67.4z M252.9,86.8h3.3l-8.8-28.9h-1.7l-8.8,28.9h3.1l2.3-8h8.2L252.9,86.8z M226.4,86.8h3.1V58.3h-3.1v12.5h-10.8V58.3h-3.1  v28.5h3.1V73.7h10.8L226.4,86.8z M203.5,83.2c-0.6,0.4-1.2,0.7-1.9,0.9c-0.8,0.3-1.7,0.4-2.6,0.4c-2.2,0-4.4-1.1-5.6-3  c-1.4-2-2.1-5-2.1-8.9c0-1.9,0.2-3.7,0.6-5.6c0.3-1.3,0.8-2.6,1.6-3.7c1.1-1.7,3-2.7,5.1-2.7c0.9,0,1.7,0.1,2.6,0.2  c0.7,0.1,1.4,0.4,2,0.7l0.8-2.8c-0.7-0.3-1.5-0.5-2.3-0.7c-1.1-0.2-2.2-0.3-3.3-0.3c-1.3,0-2.6,0.3-3.8,0.8  c-1.3,0.6-2.4,1.4-3.3,2.5c-1,1.4-1.8,2.9-2.3,4.5c-0.6,2.2-0.9,4.6-0.9,6.9c0,2.3,0.2,4.5,0.8,6.8c0.4,1.6,1.1,3.2,2.1,4.6  c0.8,1.1,2,2,3.2,2.6c1.3,0.6,2.7,0.8,4.1,0.8c1.1,0,2.3-0.1,3.4-0.4c1-0.2,1.9-0.6,2.6-1.2L203.5,83.2z M165.4,85.8  c0.8,0.4,1.7,0.8,2.6,1c1.3,0.3,2.7,0.5,4.1,0.4c2.2,0.2,4.4-0.6,6.1-2c1.5-1.5,2.3-3.5,2.2-5.6c0-1.3-0.3-2.5-0.8-3.7  c-0.6-1-1.3-2-2.1-2.8c-0.8-0.8-1.7-1.6-2.7-2.2c-1-0.7-1.9-1.3-2.7-2c-0.8-0.6-1.5-1.3-2.1-2c-0.6-0.7-0.8-1.6-0.8-2.5  c0-1,0.4-2,1.1-2.7c0.9-0.8,2.1-1.2,3.4-1.1c1.1,0,2.2,0.1,3.2,0.4c0.8,0.2,1.5,0.5,2.2,0.8l1-2.7c-0.8-0.4-1.7-0.8-2.6-0.9  c-1.2-0.3-2.5-0.4-3.7-0.4c-2-0.1-3.9,0.5-5.5,1.7c-1.5,1.2-2.3,3.1-2.1,5c0,1.3,0.3,2.5,0.8,3.6c0.6,1,1.3,1.9,2.1,2.7  c0.8,0.8,1.7,1.5,2.7,2.2c0.9,0.6,1.8,1.3,2.7,2c0.8,0.6,1.5,1.4,2.1,2.2c0.6,0.8,0.9,1.8,0.8,2.8c0.1,1.3-0.4,2.7-1.5,3.5  c-1.1,0.8-2.4,1.1-3.8,1c-1.1,0-2.2-0.1-3.3-0.5c-0.8-0.2-1.5-0.6-2.2-1L165.4,85.8z"/>
<g class="st2">
	<path class="st3" d="M174.8,110.4v8.7c-1,0.5-2.7,0.9-4.5,0.9c-3.7,0-6.1-1.5-6.1-4.8c0-2.5,1.5-4.1,3.5-4.7v0   c-2-0.6-2.9-2.1-2.9-3.9c0-2.6,1.8-4.4,4.9-4.4c1.3,0,2.7,0.4,3.5,0.9l-0.6,1.6c-0.7-0.4-1.8-0.7-2.8-0.7c-2,0-3.2,0.9-3.2,2.8   c0,1.8,1.2,2.9,2.9,2.9c0.4,0,1,0,1.8-0.2l6-1.2l0.2,1.6L174.8,110.4z M173,110.7l-3.2,0.6c-2.5,0.5-3.8,1.7-3.8,3.8   c0,2.3,1.6,3.3,4.3,3.3c1,0,2.2-0.2,2.7-0.5V110.7z"/>
</g>
<text transform="matrix(0.9009 0 0 1 181.2305 119.7598)" class="st3 st4 st5 st6"> </text>
<path class="st3" d="M200.2,119.8v-8.1h-6.6v8.1h-1.9v-17.4h1.9v7.6h6.6v-7.6h1.9v17.4H200.2z"/>
<path class="st3" d="M213.6,120c-2.9,0-5.1-1.9-5.1-5.2v-12.4h1.9v12.4c0,2.1,1.4,3.4,3.2,3.4c1.8,0,3.2-1.3,3.2-3.4v-12.4h1.9v12.4  C218.7,118.1,216.4,120,213.6,120z M211.6,100.4c-0.6,0-1-0.5-1-1.1s0.5-1.1,1-1.1c0.6,0,1,0.5,1,1.1S212.2,100.4,211.6,100.4z   M215.6,100.4c-0.6,0-1-0.5-1-1.1s0.5-1.1,1-1.1s1,0.5,1,1.1S216.1,100.4,215.6,100.4z"/>
<path class="st3" d="M234.8,119.8l-7.2-12.7c-0.4-0.8-0.8-1.6-0.9-1.9h0c0,0.4,0,1.3,0,2.1v12.5h-1.6v-17.4h1.8l7,12.5  c0.5,0.8,0.8,1.6,0.9,1.9h0c0-0.2,0-1.2,0-2.2v-12.2h1.6v17.4H234.8z"/>
<path class="st3" d="M242.9,119.8v-17.4h8.1v1.8h-6.3v5.8h5.8v1.7h-5.8v6.3h6.3v1.8H242.9z"/>
<path class="st3" d="M265.4,119.8l-2.4-5.7c-0.5-1.3-1.3-2-2.7-2h-1.6v7.6h-1.8v-16.7c1.1-0.6,2.7-0.9,4.2-0.9c3.6,0,5.5,2,5.5,4.9  c0,2.8-1.5,4.1-3.6,4.5v0c0.8,0.4,1.4,1.3,1.8,2.3l2.5,5.8H265.4z M261.1,103.8c-0.9,0-1.9,0.2-2.4,0.4v6.4h2.1c2.5,0,4-0.9,4-3.5  C264.8,105.1,263.6,103.8,261.1,103.8z"/>
<path class="st3" d="M277.4,120c-1.6,0-3.4-0.4-4.3-0.9v-16.1c1-0.5,2.6-0.9,4.3-0.9c3.6,0,5.4,1.8,5.4,4.5c0,2.3-1.4,3.7-2.7,4v0  c1.3,0.4,3.2,1.7,3.2,4.4C283.3,118.2,281.1,120,277.4,120z M277.3,103.8c-1,0-1.9,0.2-2.5,0.4v5.9h2.3c1.5,0,2.1-0.2,2.8-0.7  c0.6-0.5,1-1.5,1-2.5C280.9,104.9,279.6,103.8,277.3,103.8z M279.9,112.2c-0.7-0.4-1.4-0.6-2.8-0.6h-2.4v6.4  c0.6,0.2,1.7,0.4,2.6,0.4c2.6,0,4-1.2,4-3.3C281.4,113.8,280.9,112.8,279.9,112.2z"/>
<path class="st3" d="M289.1,119.8v-17.4h8.1v1.8h-6.3v5.8h5.8v1.7h-5.8v6.3h6.3v1.8H289.1z"/>
<g class="st2">
	<path class="st3" d="M303,119.8v-17.4h1.9v17.4H303z"/>
</g>
<g class="st2">
	<path class="st3" d="M321,119.8l-7.2-12.7c-0.4-0.8-0.8-1.6-0.9-1.9h0c0,0.4,0,1.3,0,2.1v12.5h-1.6v-17.4h1.8l7,12.5   c0.5,0.8,0.8,1.6,0.9,1.9h0c0-0.2,0-1.2,0-2.2v-12.2h1.6v17.4H321z"/>
</g>
<rect x="23" y="22" class="st7" width="116" height="98.3"/>
<g>
	<defs>
		<rect id="SVGID_1_" x="23" y="22.3" width="116.2" height="98"/>
	</defs>
	<clipPath id="SVGID_2_">
		<use xlink:href="#SVGID_1_" style="overflow:visible;"/>
	</clipPath>
	<g class="st8">
		<path class="st9" d="M81.6,92.3c-15.7-0.2-28.3,12.9-28.4,28.8l-1,0.2c-7.2-17.3,5.8-41,29.3-40.6c22,0.4,36.8,23.6,28.5,40.1    l-0.9-0.2C107.5,103.8,97,92.5,81.6,92.3"/>
		<path class="st10" d="M81.7,91.3c15.4,0.2,26.1,11.2,28.3,27.5c6.2-15.7-7.7-36.7-28.3-37.1c-21.8-0.4-34.1,20.5-29.2,36.9    C53.7,103.3,66.2,91.1,81.7,91.3"/>
		<path class="st9" d="M81.7,45.9C48.9,45.8,19.8,79.8,43,120.4c0,0,0.3,0.4,0.1,0.3c-0.3,0.1-0.6,0.3-0.9,0.3    C6,92.7,23.3,22.7,81.7,22.7c57.7,0,74.2,69.7,39.1,98.4c0,0-0.8-0.2-0.8-0.4c-0.1,0,0.1-0.2,0.1-0.2    C143.2,81.3,114.3,46,81.7,45.9"/>
		<path class="st9" d="M81.6,73.2C59.1,72.9,41,94.1,48.3,120.6l-0.8,0.5c-18.1-20.8-4.7-64.3,34.2-64.3c36.9,0,52.5,42.8,33.3,64.3    l-0.8-0.5C122.4,96.1,104,73.4,81.6,73.2"/>
		<path class="st11" d="M81.7,44.9c32.7,0.1,61.6,34.7,40.6,73.5c31.6-29.2,14.8-94.7-40.6-94.7c-56.3,0-73.6,66.2-40.8,95    C19.6,78.3,48.9,44.8,81.7,44.9"/>
		<path class="st12" d="M81.7,72.2c22.3,0.3,40.7,22.1,34.1,46.3c16.2-21.4,0.9-60.8-34.1-60.8c-36.9,0-50.3,40.1-34.8,60.9    C40.9,92.6,59,71.9,81.7,72.2"/>
	</g>
</g>
<path class="st9" d="M81.2,99c-14.1-0.2-23,10.8-22.7,21.3h1.1v-0.1c0-11.1,9.6-20.2,21.4-20.2s21.4,9,21.4,20.1v0.1h1.1  C104,110.1,94.3,99.2,81.2,99z"/>
<linearGradient id="SVGID_3_" gradientUnits="userSpaceOnUse" x1="80.8217" y1="39.47" x2="81.1217" y2="9.85" gradientTransform="matrix(1 0 0 -1 0 142)">
	<stop offset="0" style="stop-color:#9C88BF"/>
	<stop offset="1" style="stop-color:#FFFFFF"/>
</linearGradient>
<path class="st13" d="M81,100c-11.8,0-21.4,9-21.4,20.1v0.1h42.9v-0.1C102.4,109.1,92.8,100,81,100z"/>
</svg>
